<svg width="366" height="200" viewBox="0 0 366 200" fill="none" xmlns="http://www.w3.org/2000/svg">
<rect x="1" y="1" width="364" height="198" rx="7" fill="#EFEFF0"/>
<mask id="mask0_19_808" style="mask-type:luminance" maskUnits="userSpaceOnUse" x="173" y="90" width="20" height="20">
<path fill-rule="evenodd" clip-rule="evenodd" d="M173 90H192.96V109.95H173V90Z" fill="white"/>
</mask>
<g mask="url(#mask0_19_808)">
<path fill-rule="evenodd" clip-rule="evenodd" d="M178.65 91.5C176.129 91.5 174.5 93.227 174.5 95.899V104.051C174.5 106.724 176.129 108.45 178.65 108.45H187.3C189.827 108.45 191.46 106.724 191.46 104.051V95.899C191.46 93.227 189.827 91.5 187.3 91.5H178.65ZM187.3 109.95H178.65C175.27 109.95 173 107.579 173 104.051V95.899C173 92.371 175.27 90 178.65 90H187.3C190.685 90 192.96 92.371 192.96 95.899V104.051C192.96 107.579 190.685 109.95 187.3 109.95Z" fill="#61646B"/>
</g>
<path fill-rule="evenodd" clip-rule="evenodd" d="M176.281 105.18C176.095 105.18 175.91 105.112 175.765 104.974C175.464 104.69 175.452 104.214 175.737 103.915L177.265 102.302C178.074 101.443 179.439 101.401 180.302 102.211L181.26 103.183C181.527 103.453 181.961 103.458 182.229 103.194C182.33 103.075 184.508 100.43 184.508 100.43C184.922 99.9284 185.506 99.6184 186.155 99.5544C186.805 99.4974 187.436 99.6864 187.939 100.099C187.982 100.134 188.021 100.168 190.217 102.423C190.506 102.719 190.501 103.194 190.204 103.483C189.908 103.774 189.432 103.765 189.143 103.469C189.143 103.469 187.094 101.366 186.948 101.224C186.793 101.097 186.544 101.023 186.299 101.047C186.05 101.072 185.826 101.191 185.667 101.384C183.343 104.203 183.315 104.23 183.277 104.267C182.419 105.109 181.034 105.095 180.191 104.235C180.191 104.235 179.261 103.291 179.245 103.272C179.014 103.058 178.602 103.072 178.355 103.333L176.825 104.946C176.677 105.102 176.479 105.18 176.281 105.18Z" fill="#61646B"/>
<path fill-rule="evenodd" clip-rule="evenodd" d="M179.558 96.1289C179.005 96.1289 178.555 96.5789 178.555 97.1329C178.555 97.6869 179.005 98.1379 179.559 98.1379C180.113 98.1379 180.564 97.6869 180.564 97.1329C180.564 96.5799 180.113 96.1299 179.558 96.1289ZM179.559 99.6379C178.178 99.6379 177.055 98.5139 177.055 97.1329C177.055 95.7519 178.178 94.6289 179.559 94.6289C180.941 94.6299 182.064 95.7539 182.064 97.1329C182.064 98.5139 180.94 99.6379 179.559 99.6379Z" fill="#61646B"/>
<rect x="1" y="1" width="364" height="198" rx="7" stroke="#AFB1B6" stroke-width="2"/>
</svg>
